<mxfile host="65bd71144e">
    <diagram name="Страница — 1" id="yNPlP0UUKYsPbck-f127">
        <mxGraphModel dx="2814" dy="1406" grid="1" gridSize="10" guides="1" tooltips="1" connect="1" arrows="1" fold="1" page="1" pageScale="1" pageWidth="1169" pageHeight="827" math="0" shadow="0">
            <root>
                <mxCell id="0"/>
                <mxCell id="1" parent="0"/>
                <mxCell id="XY9HVnxpf_CKsky1Gurl-1" value="RabbitMQ Server" style="rounded=0;whiteSpace=wrap;html=1;verticalAlign=top;fontSize=15;fontStyle=1;align=left;" parent="1" vertex="1">
                    <mxGeometry x="70" y="80" width="850" height="640" as="geometry"/>
                </mxCell>
                <mxCell id="XY9HVnxpf_CKsky1Gurl-2" value="CUD streaming" style="rounded=0;whiteSpace=wrap;html=1;verticalAlign=top;align=left;fillColor=none;fontStyle=1" parent="1" vertex="1">
                    <mxGeometry x="100" y="170" width="800" height="340" as="geometry"/>
                </mxCell>
                <mxCell id="XY9HVnxpf_CKsky1Gurl-3" value="Business events" style="rounded=0;whiteSpace=wrap;html=1;verticalAlign=bottom;align=left;fillColor=none;fontStyle=1" parent="1" vertex="1">
                    <mxGeometry x="100" y="520" width="800" height="150" as="geometry"/>
                </mxCell>
                <mxCell id="XY9HVnxpf_CKsky1Gurl-24" value="Queues" style="rounded=1;whiteSpace=wrap;html=1;verticalAlign=top;fillColor=none;dashed=1;dashPattern=8 8;fontStyle=1" parent="1" vertex="1">
                    <mxGeometry x="630" y="120" width="240" height="580" as="geometry"/>
                </mxCell>
                <mxCell id="XY9HVnxpf_CKsky1Gurl-23" value="Exchanges" style="rounded=1;whiteSpace=wrap;html=1;verticalAlign=top;fillColor=none;dashed=1;dashPattern=8 8;fontStyle=1" parent="1" vertex="1">
                    <mxGeometry x="260" y="120" width="210" height="580" as="geometry"/>
                </mxCell>
                <mxCell id="XY9HVnxpf_CKsky1Gurl-36" style="edgeStyle=orthogonalEdgeStyle;rounded=0;orthogonalLoop=1;jettySize=auto;html=1;exitX=0.5;exitY=0;exitDx=0;exitDy=0;exitPerimeter=0;" parent="1" source="XY9HVnxpf_CKsky1Gurl-4" target="XY9HVnxpf_CKsky1Gurl-22" edge="1">
                    <mxGeometry relative="1" as="geometry"/>
                </mxCell>
                <mxCell id="XY9HVnxpf_CKsky1Gurl-4" value="task-streaming" style="shape=cylinder3;whiteSpace=wrap;html=1;boundedLbl=1;backgroundOutline=1;size=15;rotation=90;horizontal=0;" parent="1" vertex="1">
                    <mxGeometry x="720" y="157" width="60" height="150" as="geometry"/>
                </mxCell>
                <mxCell id="XY9HVnxpf_CKsky1Gurl-37" style="rounded=0;orthogonalLoop=1;jettySize=auto;html=1;entryX=0;entryY=0.25;entryDx=0;entryDy=0;exitX=0.5;exitY=0;exitDx=0;exitDy=0;exitPerimeter=0;" parent="1" source="XY9HVnxpf_CKsky1Gurl-6" target="XY9HVnxpf_CKsky1Gurl-25" edge="1">
                    <mxGeometry relative="1" as="geometry"/>
                </mxCell>
                <mxCell id="XY9HVnxpf_CKsky1Gurl-6" value="acc-streaming" style="shape=cylinder3;whiteSpace=wrap;html=1;boundedLbl=1;backgroundOutline=1;size=15;rotation=90;horizontal=0;" parent="1" vertex="1">
                    <mxGeometry x="720" y="257" width="60" height="150" as="geometry"/>
                </mxCell>
                <mxCell id="XY9HVnxpf_CKsky1Gurl-38" style="rounded=0;orthogonalLoop=1;jettySize=auto;html=1;entryX=0;entryY=0.5;entryDx=0;entryDy=0;exitX=0.5;exitY=0;exitDx=0;exitDy=0;exitPerimeter=0;" parent="1" source="XY9HVnxpf_CKsky1Gurl-7" target="XY9HVnxpf_CKsky1Gurl-26" edge="1">
                    <mxGeometry relative="1" as="geometry"/>
                </mxCell>
                <mxCell id="XY9HVnxpf_CKsky1Gurl-7" value="analisys-streaming" style="shape=cylinder3;whiteSpace=wrap;html=1;boundedLbl=1;backgroundOutline=1;size=15;rotation=90;horizontal=0;" parent="1" vertex="1">
                    <mxGeometry x="720" y="363" width="60" height="150" as="geometry"/>
                </mxCell>
                <mxCell id="XY9HVnxpf_CKsky1Gurl-17" style="edgeStyle=orthogonalEdgeStyle;rounded=0;orthogonalLoop=1;jettySize=auto;html=1;fillColor=#dae8fc;strokeColor=#6c8ebf;strokeWidth=2;" parent="1" source="XY9HVnxpf_CKsky1Gurl-9" target="XY9HVnxpf_CKsky1Gurl-6" edge="1">
                    <mxGeometry relative="1" as="geometry"/>
                </mxCell>
                <mxCell id="XY9HVnxpf_CKsky1Gurl-9" value="task-streaming" style="rounded=0;whiteSpace=wrap;html=1;fillColor=#dae8fc;strokeColor=#6c8ebf;" parent="1" vertex="1">
                    <mxGeometry x="300" y="302" width="120" height="60" as="geometry"/>
                </mxCell>
                <mxCell id="XY9HVnxpf_CKsky1Gurl-10" value="user-streaming" style="rounded=0;whiteSpace=wrap;html=1;fillColor=#fff2cc;strokeColor=#d6b656;" parent="1" vertex="1">
                    <mxGeometry x="300" y="202" width="120" height="60" as="geometry"/>
                </mxCell>
                <mxCell id="XY9HVnxpf_CKsky1Gurl-11" value="trx-streaming" style="rounded=0;whiteSpace=wrap;html=1;fillColor=#d5e8d4;strokeColor=#82b366;" parent="1" vertex="1">
                    <mxGeometry x="300" y="407" width="120" height="60" as="geometry"/>
                </mxCell>
                <mxCell id="XY9HVnxpf_CKsky1Gurl-12" value="task-lifecycle-log" style="rounded=0;whiteSpace=wrap;html=1;fillColor=#e1d5e7;strokeColor=#9673a6;" parent="1" vertex="1">
                    <mxGeometry x="300" y="585" width="120" height="60" as="geometry"/>
                </mxCell>
                <mxCell id="XY9HVnxpf_CKsky1Gurl-39" style="rounded=0;orthogonalLoop=1;jettySize=auto;html=1;entryX=0;entryY=0.75;entryDx=0;entryDy=0;exitX=0.5;exitY=0;exitDx=0;exitDy=0;exitPerimeter=0;" parent="1" source="XY9HVnxpf_CKsky1Gurl-13" target="XY9HVnxpf_CKsky1Gurl-25" edge="1">
                    <mxGeometry relative="1" as="geometry"/>
                </mxCell>
                <mxCell id="XY9HVnxpf_CKsky1Gurl-13" value="acc-business-events" style="shape=cylinder3;whiteSpace=wrap;html=1;boundedLbl=1;backgroundOutline=1;size=15;rotation=90;horizontal=0;" parent="1" vertex="1">
                    <mxGeometry x="720" y="540" width="60" height="150" as="geometry"/>
                </mxCell>
                <mxCell id="XY9HVnxpf_CKsky1Gurl-16" style="edgeStyle=orthogonalEdgeStyle;rounded=0;orthogonalLoop=1;jettySize=auto;html=1;entryX=0.5;entryY=1;entryDx=0;entryDy=0;entryPerimeter=0;fillColor=#ffe6cc;strokeColor=#d79b00;strokeWidth=2;" parent="1" source="XY9HVnxpf_CKsky1Gurl-10" target="XY9HVnxpf_CKsky1Gurl-4" edge="1">
                    <mxGeometry relative="1" as="geometry"/>
                </mxCell>
                <mxCell id="XY9HVnxpf_CKsky1Gurl-18" style="rounded=0;orthogonalLoop=1;jettySize=auto;html=1;exitX=1;exitY=0.5;exitDx=0;exitDy=0;fillColor=#ffe6cc;strokeColor=#d79b00;strokeWidth=2;" parent="1" source="XY9HVnxpf_CKsky1Gurl-10" target="XY9HVnxpf_CKsky1Gurl-6" edge="1">
                    <mxGeometry relative="1" as="geometry"/>
                </mxCell>
                <mxCell id="XY9HVnxpf_CKsky1Gurl-19" style="rounded=0;orthogonalLoop=1;jettySize=auto;html=1;entryX=0.145;entryY=1;entryDx=0;entryDy=-4.35;entryPerimeter=0;exitX=1;exitY=0.5;exitDx=0;exitDy=0;fillColor=#ffe6cc;strokeColor=#d79b00;strokeWidth=2;" parent="1" source="XY9HVnxpf_CKsky1Gurl-10" target="XY9HVnxpf_CKsky1Gurl-7" edge="1">
                    <mxGeometry relative="1" as="geometry"/>
                </mxCell>
                <mxCell id="XY9HVnxpf_CKsky1Gurl-20" style="rounded=0;orthogonalLoop=1;jettySize=auto;html=1;entryX=0.5;entryY=1;entryDx=0;entryDy=0;entryPerimeter=0;exitX=1;exitY=0.5;exitDx=0;exitDy=0;fillColor=#dae8fc;strokeColor=#6c8ebf;strokeWidth=2;" parent="1" source="XY9HVnxpf_CKsky1Gurl-9" target="XY9HVnxpf_CKsky1Gurl-7" edge="1">
                    <mxGeometry relative="1" as="geometry">
                        <mxPoint x="430" y="240" as="sourcePoint"/>
                        <mxPoint x="739" y="424" as="targetPoint"/>
                    </mxGeometry>
                </mxCell>
                <mxCell id="XY9HVnxpf_CKsky1Gurl-21" style="rounded=0;orthogonalLoop=1;jettySize=auto;html=1;entryX=0.855;entryY=1;entryDx=0;entryDy=-4.35;entryPerimeter=0;fillColor=#d5e8d4;strokeColor=#82b366;strokeWidth=2;" parent="1" source="XY9HVnxpf_CKsky1Gurl-11" target="XY9HVnxpf_CKsky1Gurl-7" edge="1">
                    <mxGeometry relative="1" as="geometry"/>
                </mxCell>
                <mxCell id="XY9HVnxpf_CKsky1Gurl-22" value="Сервис управления задачами" style="rounded=0;whiteSpace=wrap;html=1;" parent="1" vertex="1">
                    <mxGeometry x="1040" y="187" width="170" height="90" as="geometry"/>
                </mxCell>
                <mxCell id="XY9HVnxpf_CKsky1Gurl-25" value="Сервис аккаунтинга" style="rounded=0;whiteSpace=wrap;html=1;" parent="1" vertex="1">
                    <mxGeometry x="1040" y="350" width="170" height="90" as="geometry"/>
                </mxCell>
                <mxCell id="XY9HVnxpf_CKsky1Gurl-26" value="Сервис аналитики" style="rounded=0;whiteSpace=wrap;html=1;" parent="1" vertex="1">
                    <mxGeometry x="1040" y="510" width="170" height="90" as="geometry"/>
                </mxCell>
                <mxCell id="XY9HVnxpf_CKsky1Gurl-32" style="rounded=0;orthogonalLoop=1;jettySize=auto;html=1;entryX=0;entryY=0.75;entryDx=0;entryDy=0;exitX=1;exitY=0.25;exitDx=0;exitDy=0;fillColor=#dae8fc;strokeColor=#6c8ebf;" parent="1" source="XY9HVnxpf_CKsky1Gurl-27" target="XY9HVnxpf_CKsky1Gurl-9" edge="1">
                    <mxGeometry relative="1" as="geometry"/>
                </mxCell>
                <mxCell id="XY9HVnxpf_CKsky1Gurl-33" style="rounded=0;orthogonalLoop=1;jettySize=auto;html=1;entryX=0;entryY=0.5;entryDx=0;entryDy=0;exitX=1;exitY=0.75;exitDx=0;exitDy=0;fillColor=#d5e8d4;strokeColor=#82b366;" parent="1" source="XY9HVnxpf_CKsky1Gurl-27" target="XY9HVnxpf_CKsky1Gurl-11" edge="1">
                    <mxGeometry relative="1" as="geometry"/>
                </mxCell>
                <mxCell id="XY9HVnxpf_CKsky1Gurl-27" value="Сервис аккаунтинга" style="rounded=0;whiteSpace=wrap;html=1;" parent="1" vertex="1">
                    <mxGeometry x="-240" y="470" width="170" height="90" as="geometry"/>
                </mxCell>
                <mxCell id="XY9HVnxpf_CKsky1Gurl-31" style="rounded=0;orthogonalLoop=1;jettySize=auto;html=1;exitX=1;exitY=0.25;exitDx=0;exitDy=0;fillColor=#dae8fc;strokeColor=#6c8ebf;" parent="1" source="XY9HVnxpf_CKsky1Gurl-28" target="XY9HVnxpf_CKsky1Gurl-9" edge="1">
                    <mxGeometry relative="1" as="geometry"/>
                </mxCell>
                <mxCell id="XY9HVnxpf_CKsky1Gurl-34" style="rounded=0;orthogonalLoop=1;jettySize=auto;html=1;entryX=0;entryY=0.5;entryDx=0;entryDy=0;exitX=1;exitY=0.75;exitDx=0;exitDy=0;fillColor=#e1d5e7;strokeColor=#9673a6;" parent="1" source="XY9HVnxpf_CKsky1Gurl-28" target="XY9HVnxpf_CKsky1Gurl-12" edge="1">
                    <mxGeometry relative="1" as="geometry"/>
                </mxCell>
                <mxCell id="XY9HVnxpf_CKsky1Gurl-28" value="Сервис управления задачами" style="rounded=0;whiteSpace=wrap;html=1;" parent="1" vertex="1">
                    <mxGeometry x="-240" y="310" width="170" height="90" as="geometry"/>
                </mxCell>
                <mxCell id="XY9HVnxpf_CKsky1Gurl-30" style="rounded=0;orthogonalLoop=1;jettySize=auto;html=1;exitX=1;exitY=0.5;exitDx=0;exitDy=0;fillColor=#fff2cc;strokeColor=#d6b656;" parent="1" source="XY9HVnxpf_CKsky1Gurl-29" target="XY9HVnxpf_CKsky1Gurl-10" edge="1">
                    <mxGeometry relative="1" as="geometry"/>
                </mxCell>
                <mxCell id="XY9HVnxpf_CKsky1Gurl-29" value="Сервис авторизации" style="rounded=0;whiteSpace=wrap;html=1;" parent="1" vertex="1">
                    <mxGeometry x="-240" y="150" width="170" height="90" as="geometry"/>
                </mxCell>
                <mxCell id="XY9HVnxpf_CKsky1Gurl-35" style="edgeStyle=orthogonalEdgeStyle;rounded=0;orthogonalLoop=1;jettySize=auto;html=1;fillColor=#e1d5e7;strokeColor=#9673a6;strokeWidth=2;" parent="1" source="XY9HVnxpf_CKsky1Gurl-12" target="XY9HVnxpf_CKsky1Gurl-13" edge="1">
                    <mxGeometry relative="1" as="geometry">
                        <mxPoint x="675" y="615" as="targetPoint"/>
                    </mxGeometry>
                </mxCell>
            </root>
        </mxGraphModel>
    </diagram>
</mxfile>